<svg width="72" height="52" viewBox="0 0 72 52" fill="none" xmlns="http://www.w3.org/2000/svg">
<path d="M63.3389 29.1915C62.9824 30.0002 62.565 30.7828 62.0955 31.5306C63.678 33.0697 65.4954 35.1218 67.1997 37.7478C69.8518 41.852 71.1909 45.765 71.8952 48.5823C71.5822 45.2954 70.6257 40.2086 67.5562 34.9044C66.1997 32.5653 64.7128 30.6784 63.3476 29.1828" fill="white"/>
<path d="M48.7915 27.9915C48.7915 28.3393 48.7741 28.6784 48.7567 29.0175C48.2176 20.2874 40.9657 13.3745 32.0963 13.3745C27.0617 13.3745 22.5575 15.6005 19.4967 19.1222C19.1228 19.4787 18.7663 19.8439 18.4271 20.2265C18.2619 20.4178 18.0967 20.6178 17.9315 20.8091C17.7663 21.0091 17.6098 21.2091 17.462 21.4178C16.8533 22.2438 16.3229 23.1308 15.8794 24.0699C17.6359 16.7483 24.2357 11.305 32.0963 11.305C41.3135 11.305 48.7828 18.7744 48.7828 27.9915" fill="white"/>
<path d="M42.731 19.4787C44.244 20.983 45.47 22.783 46.3048 24.7829C45.4613 22.783 44.2353 20.983 42.731 19.4787Z" fill="white"/>
<path d="M47.6174 31.2871C47.6174 31.487 47.6174 31.6783 47.6001 31.8783C47.6001 31.687 47.6088 31.487 47.6088 31.2871" fill="white"/>
<path d="M47.6177 31.2871C47.6177 31.4871 47.6177 31.6784 47.609 31.8784C47.609 32.061 47.5916 32.2349 47.5829 32.4175C47.5829 32.4523 47.5829 32.4784 47.5829 32.5131C47.5655 32.6783 47.5568 32.8436 47.5394 33.0088C47.5394 33.0262 47.5394 33.0436 47.5394 33.0609C47.522 33.2522 47.4959 33.4348 47.4698 33.6175C45.5482 34.687 43.4352 35.6174 41.1918 36.3826C40.2092 36.713 39.2005 37.0174 38.2092 37.2782C37.5745 37.4347 36.931 37.5913 36.2962 37.7304C33.2181 38.3043 29.6008 38.8956 26.0791 38.8956C25.3661 38.8956 24.6705 38.8695 24.0096 38.8173C22.9836 38.739 21.9923 38.6086 21.088 38.4173H21.0358L20.9836 38.3999C20.1576 38.2782 19.3489 38.0521 18.575 37.7478C16.7837 35.2696 15.662 32.2697 15.462 29.0263C15.4359 28.6872 15.4272 28.348 15.4272 28.0002C15.4272 26.6524 15.5838 25.3307 15.8968 24.0786C16.349 23.1482 16.8794 22.2612 17.4794 21.4265C17.6272 21.2178 17.7837 21.0178 17.9489 20.8178C18.1141 20.6178 18.2793 20.4178 18.4446 20.2265C18.7837 19.8439 19.1402 19.4787 19.5141 19.1222C22.4966 16.3136 26.5226 14.5919 30.9399 14.5919C35.3571 14.5919 39.7222 16.4614 42.7395 19.4787C44.2525 20.9917 45.4699 22.783 46.3134 24.7829C46.5742 25.409 46.8003 26.0524 46.9916 26.7046C47.0699 26.9742 47.1307 27.235 47.2003 27.5046C47.2612 27.7741 47.3133 28.0437 47.3655 28.3219C47.4351 28.7306 47.4959 29.148 47.5394 29.5654C47.5916 30.1306 47.6264 30.6958 47.6264 31.2697" fill="white"/>
<path d="M60.5477 26.6786L60.6172 26.7133C60.8259 26.3655 61.0346 26.0003 61.2259 25.6003C62.0259 24.0091 63.4433 21.1657 62.9998 17.8614C62.4433 13.7398 59.1912 11.0094 57.2 9.60947C57.1826 9.60077 57.1739 9.58338 57.1652 9.58338L57.1043 9.67033C56.8521 9.47034 56.6087 9.27034 56.3478 9.09644C56.0869 8.91383 55.8261 8.73992 55.5478 8.57471C55.1478 8.33124 54.7391 8.09646 54.3131 7.88777C54.2696 7.87038 54.2348 7.85299 54.1913 7.8356C53.0696 7.30518 52.0001 6.94867 51.061 6.7052C51.0523 6.7052 51.0436 6.7052 51.0349 6.7052L50.9566 6.68781C50.2175 6.5052 49.5654 6.38347 49.0263 6.30521C49.0176 6.30521 49.0089 6.30521 49.0002 6.30521C47.948 6.16608 47.1654 6.06174 47.1394 6.06174C48.1915 6.25304 49.4958 6.57477 50.9219 7.11388C52.5305 7.73995 54.287 8.64427 56 10.0095C57.7738 11.4181 60.1738 13.3137 60.8433 16.5049C61.2172 18.2788 60.9825 19.7396 60.7825 20.8005C59.739 26.409 55.0522 30.8871 50.4784 33.8871C47.8002 35.6348 44.8438 37.0261 41.7569 38.0782C40.7308 38.4261 39.6874 38.7478 38.6352 39.0174C37.9744 39.1826 37.3048 39.3391 36.6353 39.4869C35.6353 39.6782 34.6093 39.8608 33.5571 40.0173C24.94 41.5564 13.6794 40.6173 9.88821 31.2002C9.48822 30.2176 9.21866 29.1915 9.09693 28.1307C8.85345 26.0177 9.19257 23.8091 10.3056 21.6526C10.9925 20.4266 11.9055 19.3049 12.949 18.3136C13.6272 17.644 14.3576 17.018 15.1228 16.4267C16.0185 15.7397 16.9663 15.1137 17.9489 14.5137L16.1141 14.9398V14.9137L16.1054 14.8876L16.6445 14.7745L17.0097 14.6963L17.9489 14.505C18.9227 13.905 19.9401 13.3485 20.9575 12.792C20.9575 12.792 20.9662 12.792 20.9749 12.792C21.5661 12.479 22.1574 12.1572 22.7487 11.8442C22.3748 11.8442 21.9922 11.8616 21.6183 11.879C19.4619 12.6876 17.1315 13.3659 14.7837 13.8007C14.4359 13.9746 14.0881 14.1659 13.749 14.3572C12.836 14.8876 11.9664 15.4876 11.1403 16.1571C9.523 17.3571 7.31436 18.4266 6.20135 20.044C2.94927 24.5134 3.01883 30.7132 4.31445 36.0435C4.57531 37.1044 4.91443 38.1565 5.33181 39.1652C9.28822 50.6257 22.427 51.8779 32.7398 49.104C33.6006 49.0084 34.3832 48.9127 35.0701 48.8258C35.7571 48.7388 36.3571 48.6693 36.8614 48.6084C37.0266 48.5301 37.2179 48.4258 37.4353 48.3214C37.5048 48.278 37.5744 48.2432 37.644 48.2084C42.6351 45.878 47.2089 42.7999 51.4262 39.2782C53.4001 37.6261 55.3217 35.9131 57.2 34.1479C57.3217 34.0349 57.4434 33.9218 57.5565 33.8088C57.6173 32.7045 58.226 31.6349 59.3564 31.2089C59.6173 30.6871 59.8434 30.1567 60.0347 29.6089C60.2433 28.9915 60.5912 28.5307 61.0085 28.2003C60.7912 27.9829 60.5651 27.7655 60.3477 27.5481C59.8347 28.4263 59.2608 29.2611 58.6521 30.0698L58.4347 29.9046L58.2173 29.7393C58.9912 28.7394 59.7042 27.6785 60.3129 26.5742L60.5303 26.6873L60.5477 26.6786ZM62.7389 19.3483C62.7824 20.6526 62.5998 21.957 62.252 23.2091L62.0346 23.1482L61.8172 23.0874C62.1737 21.8787 62.365 20.6179 62.3389 19.3657H62.5389L62.7389 19.357V19.3483ZM59.7564 12.3833L59.8694 12.2963L59.9912 12.2007C60.7912 13.2094 61.4694 14.3311 61.9476 15.5397L61.7824 15.6006L61.6172 15.6615C61.1651 14.4876 60.5303 13.3833 59.7564 12.3746M12.4794 16.131L12.5055 16.1919L12.5316 16.2615C11.3838 16.818 10.2969 17.4875 9.29692 18.2788L9.22736 18.1918L9.15779 18.1049C10.1839 17.331 11.3056 16.6788 12.4707 16.1397M6.41005 20.8179L6.53178 20.9048L6.65352 20.9918C5.89702 22.0091 5.30573 23.1395 4.90574 24.3308L4.74052 24.2699L4.56662 24.2091C4.99269 22.983 5.62745 21.8265 6.41874 20.8092M4.24488 31.8958C3.96663 30.6263 3.82751 29.3307 3.86229 28.035H4.07098L4.27097 28.0437C4.25358 29.3046 4.4014 30.5654 4.68835 31.8002L4.46227 31.8523L4.24488 31.8958ZM7.61001 38.8521C6.79264 37.8435 6.09701 36.7392 5.53181 35.5653L5.75789 35.4522L5.98397 35.3392C6.54917 36.4696 7.2448 37.5304 8.04478 38.4956L7.8274 38.6695L7.61001 38.8434V38.8521ZM13.6968 43.6346C12.5316 43.0607 11.4186 42.3738 10.3925 41.5825L10.5751 41.3477L10.7578 41.1216C11.749 41.8955 12.836 42.5477 13.9664 43.1042L13.8359 43.3738L13.7055 43.6346H13.6968ZM21.1227 45.8346C19.8445 45.6606 18.5749 45.3911 17.3228 45.0259L17.4097 44.7302L17.4967 44.4346C18.7141 44.7824 19.9575 45.0346 21.2096 45.2085L21.1227 45.8259V45.8346ZM24.9834 46.1389V45.8172L24.9921 45.4954C26.2617 45.5128 27.5225 45.4607 28.792 45.3476L28.8181 45.678L28.8442 46.0085C27.5573 46.1215 26.2704 46.1737 24.9747 46.1476M35.5049 44.8259C35.1919 44.9128 34.8788 44.9911 34.5658 45.0694C33.9397 45.2259 33.305 45.3563 32.6702 45.478L32.6006 45.1476L32.5398 44.8172C33.1658 44.6955 33.7832 44.565 34.4006 44.4085C34.7049 44.3302 35.018 44.252 35.3223 44.1737C35.6266 44.0868 35.9484 43.9998 36.2527 43.9303L36.3397 44.252L36.4266 44.5824C36.1136 44.6607 35.8179 44.7389 35.5049 44.8259ZM42.8438 42.4433C42.5482 42.5825 42.2438 42.6781 41.9395 42.7999C41.3395 43.0172 40.7395 43.2607 40.1222 43.4607L40.0178 43.1477L39.9135 42.8433C40.5135 42.6433 41.1047 42.4173 41.7047 42.1999C42.0004 42.0868 42.3047 41.9912 42.5917 41.8521L43.4612 41.4695L43.6003 41.7564L43.7308 42.0521L42.8438 42.4433ZM47.148 40.226L46.9828 39.9565L46.8176 39.6869C47.9133 39.0347 48.9741 38.3391 50.0175 37.6087L50.3741 38.1043C49.3306 38.8521 48.2524 39.5565 47.148 40.226ZM56.1739 33.0088C55.287 33.9392 54.3566 34.8349 53.3914 35.687L53.1914 35.4609L52.9914 35.2348C53.9479 34.3914 54.8696 33.5219 55.7478 32.6001L55.9565 32.8001L56.1739 33.0001V33.0088Z" fill="white"/>
<path d="M9.71436 13.218C10.21 12.6615 10.9839 11.8268 12.0013 10.9051C15.9142 7.35734 19.8706 5.65304 22.0966 4.72263C23.114 4.29655 24.54 3.74005 26.3139 3.20963C25.6878 4.41829 25.2183 5.29652 24.8618 5.94868C24.627 6.38345 24.427 6.73127 24.2966 7.26169C24.0966 8.04427 24.2531 8.35731 24.0792 8.80947C23.7835 9.58336 22.8792 9.91379 22.2618 10.1312C20.4358 10.7659 18.2098 11.5137 15.6359 12.3137C15.862 11.9833 16.1055 11.6442 16.3577 11.3051C16.862 10.6355 17.3663 10.0268 17.862 9.47902C17.2968 9.76597 16.6098 10.1747 15.9055 10.7659C15.062 11.4703 14.4621 12.192 14.0534 12.7746C13.6969 12.8702 13.3403 12.9572 12.9838 13.0528C13.4882 12.305 14.1577 11.4181 15.0533 10.5225C16.0011 9.57467 16.9316 8.86164 17.7141 8.34861C16.5142 8.89643 15.1316 9.63554 13.6708 10.6355C12.323 11.5572 11.2187 12.505 10.323 13.3572C10.123 13.3137 9.92305 13.2615 9.73175 13.218" fill="white"/>
<path d="M53.9129 7.53127L53.8868 7.59213C53.5216 7.42692 53.1651 7.2878 52.8086 7.15736C53.1825 7.2704 53.5477 7.39214 53.9129 7.53127Z" fill="white"/>
<path d="M62.3998 27.235C62.1564 27.8263 61.8955 28.4089 61.6085 28.9915C58.3304 35.7391 52.574 41.7042 46.4698 45.8084C42.8264 48.2605 38.5396 50.0257 34.0702 51.0256C33.1745 51.2256 32.2789 51.3995 31.3746 51.5387C22.1053 52.7995 10.8447 51.8604 4.58402 43.8258C3.97534 43.0693 3.41884 42.2781 2.9232 41.452C-0.0593277 36.4869 -0.928872 30.3045 1.10585 24.7307C1.82757 22.6003 2.90581 20.5917 4.31446 18.8526C5.84486 16.9657 7.78393 15.444 9.95778 14.2527C10.0447 14.2527 10.1317 14.2527 10.2186 14.2527C11.1491 14.0354 11.9143 13.8441 12.4099 13.7223C12.4099 13.7223 16.8793 12.6006 22.8966 10.505C23.0357 10.4528 23.3574 10.3398 23.7574 10.1311C24.3487 9.82677 24.7922 9.47895 25.0704 9.23548C25.4095 9.23548 25.7487 9.22679 26.1139 9.19201C26.9225 9.13114 27.653 9.00071 28.2877 8.84419C27.1312 9.71373 26.1226 10.3137 25.4182 10.6876C23.7661 11.5832 22.5574 11.9745 20.9575 12.7484C20.9575 12.7484 20.9488 12.7484 20.9401 12.7484C20.4097 13.0093 19.8271 13.3136 19.1749 13.6962C18.6358 14.0093 18.2097 14.2788 17.9402 14.4614C17.6271 14.5136 17.3141 14.5832 17.0011 14.6527L16.6359 14.731L16.0968 14.844V14.8701C14.8707 15.2005 13.6533 15.6353 12.4969 16.1831L12.4708 16.1223C11.3056 16.6614 10.1839 17.3135 9.15781 18.0874L9.22737 18.1744C8.21001 18.957 7.2883 19.87 6.5231 20.8873L6.40136 20.8004C5.61878 21.8264 4.97532 22.9742 4.54924 24.2003L4.72315 24.2612C4.32316 25.4176 4.08839 26.6698 4.05361 28.0263H3.84491C3.80143 29.3219 3.94926 30.6175 4.22751 31.8783L4.4449 31.8262C4.6362 32.6957 4.91445 33.5479 5.25357 34.3826C5.40139 34.7391 5.56661 35.0869 5.73182 35.4261L5.50574 35.5391C6.07094 36.7043 6.77527 37.8086 7.58394 38.826L7.80133 38.6521C8.62739 39.6607 9.5491 40.5477 10.5491 41.3216L10.3665 41.5563C11.3925 42.3563 12.5055 43.0433 13.6707 43.6085L13.8012 43.3389C14.9403 43.8954 16.1402 44.3476 17.3837 44.7041L17.2967 44.9997C18.5402 45.3649 19.8097 45.6258 21.0879 45.8084L21.1314 45.4954C22.3922 45.678 23.6705 45.7649 24.9574 45.791V46.1127C26.2443 46.1388 27.5399 46.0953 28.8181 45.9736L28.792 45.6432C30.079 45.5301 31.3485 45.3475 32.5919 45.1041L32.6528 45.4345C33.2876 45.3128 33.9137 45.1823 34.5484 45.0258C34.8615 44.9475 35.1745 44.8693 35.4875 44.7823C35.8006 44.6954 36.0962 44.6084 36.4092 44.5389L36.3223 44.2084C37.044 44.0171 37.7831 43.8084 38.5396 43.5824C39.0266 43.4258 39.5135 43.278 40.0004 43.1041L40.1048 43.4258C40.7135 43.2172 41.3134 42.9824 41.9221 42.765C42.2265 42.6433 42.5308 42.5476 42.8265 42.4085L43.7134 42.0085L43.583 41.7129C44.0438 41.4955 44.5134 41.2694 44.9916 41.0346C45.4003 40.8259 46.1133 40.4346 46.9742 39.9129L47.1394 40.1825C48.2437 39.5216 49.3219 38.8086 50.3654 38.0608L50.1828 37.8086C51.1132 37.1478 52.0523 36.4173 52.887 35.6782C52.974 35.6 53.0783 35.513 53.1827 35.4174L53.3827 35.6435C54.3392 34.7913 55.2783 33.8957 56.1652 32.9653L55.9478 32.7653C56.7652 31.9131 57.626 30.9392 58.4434 29.8523L58.6608 30.0175C59.2695 29.2088 59.8434 28.3741 60.3564 27.4959C60.4955 27.2524 60.6347 27.0089 60.7651 26.7654L60.6173 26.6785L60.5477 26.6437C61.1564 25.522 61.6694 24.3394 62.0259 23.1134L62.2433 23.1742C62.5911 21.9221 62.7824 20.6178 62.7303 19.3135H62.5303C62.5129 18.6004 62.4259 17.8787 62.2607 17.1483C62.1303 16.6005 61.9651 16.0701 61.7738 15.5657L61.939 15.5049C61.4607 14.2962 60.7825 13.1745 59.9825 12.1658L59.8608 12.2615C58.8608 10.9659 57.8173 10.0615 57.2 9.5746C57.1826 9.56591 57.1739 9.54852 57.1652 9.54852L57.2347 9.46156C56.9739 9.27027 56.7217 9.07027 56.4522 8.89636C56.1913 8.71376 55.913 8.53985 55.6348 8.37464C55.0783 8.04421 54.5044 7.75726 53.9131 7.5051C54.8087 7.81813 55.6696 8.20073 56.5043 8.6442C59.0173 9.98329 61.2346 11.9832 62.5129 14.531C64.478 18.4178 64.052 23.1742 62.3911 27.2089" fill="white"/>
<path d="M19.3749 4.22691L14.5228 5.47036L12.1316 7.58334L12.6794 9.72241C12.7142 9.67024 12.749 9.60937 12.7751 9.5485C13.0881 8.90504 13.0359 8.2355 12.9403 7.76594L14.7663 6.47033L15.1141 7.83551C15.2272 7.76594 15.4098 7.62682 15.575 7.40074C15.7402 7.17466 15.8098 6.95727 15.8445 6.82684C15.7837 6.56598 15.7228 6.31381 15.6619 6.05295C16.8706 5.73991 18.0879 5.43557 19.2966 5.12254L19.4097 5.55731C19.4531 5.51383 19.5053 5.43557 19.5488 5.32253C19.601 5.18341 19.5923 5.06167 19.5836 4.99211L19.3836 4.21822L19.3749 4.22691Z" fill="white"/>
<path d="M14.436 5.13135L18.9837 3.96617C18.4011 3.7053 17.5664 3.41836 16.549 3.34879C14.0795 3.19227 12.2535 4.41833 11.6448 4.87049C11.9404 4.78354 12.4361 4.6618 13.0621 4.72267C13.6882 4.78354 14.1578 4.99222 14.4273 5.13135" fill="white"/>
<path d="M11.4014 5.24437C11.5579 5.17481 11.7318 5.10525 11.9231 5.06177C12.8796 4.84439 13.7057 5.25307 14.0361 5.43567L11.9927 7.26171C11.7927 6.59216 11.6014 5.91392 11.4014 5.24437Z" fill="white"/>
<path d="M58.2955 23.8786C56.9216 22.7482 55.3477 21.5743 53.5651 20.4178C51.3043 18.9483 49.1479 17.7831 47.1914 16.8614C47.7479 17.5309 48.3827 18.4005 48.9392 19.4874C49.3131 20.2004 49.5826 20.8787 49.7913 21.4786C51.0957 22.1569 52.4869 22.9569 53.9304 23.9047C55.0695 24.6525 56.1129 25.409 57.0607 26.1394C57.2781 25.8176 57.5042 25.4611 57.7216 25.0525C57.9476 24.6351 58.1302 24.2351 58.2781 23.8786" fill="white"/>
<path d="M52.8088 7.16598C52.2262 6.99207 51.6436 6.83556 51.0523 6.69643C51.0436 6.69643 51.0349 6.69643 51.0262 6.69643L50.948 6.67904C50.3132 6.53122 49.661 6.40079 49.0176 6.29644C49.0089 6.29644 49.0002 6.29644 48.9915 6.29644C48.7915 6.26166 48.5915 6.22688 48.3828 6.20079C48.435 6.20079 48.4958 6.20079 48.548 6.20949C48.8263 6.23557 49.4263 6.29644 50.2349 6.45296C50.4958 6.50513 50.7827 6.566 51.0784 6.64426C51.6088 6.78338 52.1914 6.9486 52.8088 7.17468" fill="white"/>
<path d="M48.3743 6.17468C48.6873 6.18338 49.0003 6.21816 49.3134 6.26164C49.6264 6.30511 49.9308 6.34859 50.2438 6.40946V6.46163C49.9308 6.39207 49.6177 6.3399 49.3134 6.28772C49.0003 6.24425 48.6873 6.20077 48.383 6.18338" fill="white"/>
<path d="M48.3393 7.89642C48.3915 8.13119 48.4437 8.40075 48.5219 8.65292C48.635 9.04421 49.0176 9.12247 49.2785 8.80944C49.4785 8.56597 49.6697 8.3051 49.8523 8.04424C50.0523 7.75729 50.2436 7.50513 50.661 7.47904C51.0784 7.45295 51.0001 7.14861 50.7915 6.89645C51.548 6.18342 52.2784 5.50518 53.0175 4.80955C52.6957 4.43564 52.3566 4.53999 52.0349 4.68781C51.3741 4.99215 50.7219 5.30518 49.9828 5.653C50.0263 5.06171 50.061 4.54868 50.0958 4.02696C49.6089 3.74871 49.2263 3.94001 48.8959 4.27913C48.4959 4.68781 48.0959 5.10519 47.7307 5.53996C47.5046 5.80952 47.2698 5.87039 46.9394 5.79213C46.2611 5.63561 45.5655 5.52257 44.7395 5.35736C45.3133 4.83563 45.7742 4.29652 46.3394 3.92261C48.1046 2.75743 49.9132 1.66181 51.7045 0.531404C51.2871 -0.0164074 50.9827 -0.112057 50.4088 0.114024C46.8263 1.50529 43.2438 2.90525 39.6526 4.28782C39.4352 4.37478 39.157 4.39217 38.9222 4.34869C37.5657 4.07044 36.2179 3.7661 34.8788 3.47045C34.3049 3.34872 33.7484 3.34002 33.2006 3.60088C32.905 3.74871 32.5572 3.79218 32.2615 3.94001C32.0268 4.06174 31.705 4.27043 31.6876 4.46173C31.6528 4.69651 31.8355 5.0878 32.0441 5.20954C32.7137 5.58344 33.418 5.94865 34.1571 6.16603C35.3136 6.49646 36.5136 6.71384 37.6962 6.93992C38.0266 7.00079 38.2179 7.11383 38.3657 7.43556C38.9222 8.6964 39.5135 9.95723 40.0874 11.2094C40.4526 12.0093 40.4961 12.0354 41.5134 12.0528V11.4181C41.5134 11.0181 41.5569 10.6181 41.5048 10.2268C41.3569 9.27899 41.67 8.58336 42.4612 8.05294C42.7308 7.87033 42.9482 7.76599 43.2786 7.79207C44.1221 7.85294 44.9655 7.87903 45.8003 7.89642C46.6264 7.91381 47.4524 7.89642 48.3393 7.89642Z" fill="white"/>
</svg>
