<svg width="83" height="60" viewBox="0 0 83 60" fill="none" xmlns="http://www.w3.org/2000/svg">
<path d="M72.8323 33.5711C72.4223 34.5011 71.9423 35.4011 71.4023 36.2611C73.2223 38.0311 75.3123 40.3911 77.2723 43.4111C80.3223 48.1311 81.8623 52.6311 82.6723 55.8711C82.3123 52.0911 81.2123 46.2411 77.6823 40.1411C76.1223 37.4511 74.4123 35.2811 72.8423 33.5611" fill="#23376C"/>
<path d="M56.1023 32.1911C56.1023 32.5911 56.0823 32.9811 56.0623 33.3711C55.4423 23.3311 47.1023 15.3811 36.9023 15.3811C31.1123 15.3811 25.9323 17.9411 22.4123 21.9911C21.9823 22.4011 21.5723 22.8211 21.1823 23.2611C20.9923 23.4811 20.8023 23.7111 20.6123 23.9311C20.4223 24.1611 20.2423 24.3911 20.0723 24.6311C19.3723 25.5811 18.7623 26.6011 18.2523 27.6811C20.2723 19.2611 27.8623 13.0011 36.9023 13.0011C47.5023 13.0011 56.0923 21.5911 56.0923 32.1911" fill="#23376C"/>
<path d="M49.1323 22.4012C50.8723 24.1312 52.2823 26.2012 53.2423 28.5012C52.2723 26.2012 50.8623 24.1312 49.1323 22.4012Z" fill="#23376C"/>
<path d="M54.7523 35.9811C54.7523 36.2111 54.7523 36.4311 54.7323 36.6611C54.7323 36.4411 54.7423 36.2111 54.7423 35.9811" fill="#23376C"/>
<path d="M54.7523 35.9811C54.7523 36.2111 54.7523 36.4311 54.7423 36.6611C54.7423 36.8711 54.7223 37.0711 54.7123 37.2811C54.7123 37.3211 54.7123 37.3511 54.7123 37.3911C54.7023 37.5811 54.6823 37.7711 54.6623 37.9611C54.6623 37.9811 54.6623 38.0011 54.6623 38.0211C54.6423 38.2411 54.6123 38.4511 54.5823 38.6611C52.3723 39.8911 49.9423 40.9611 47.3623 41.8411C46.2323 42.2211 45.0723 42.5711 43.9323 42.8711C43.2023 43.0511 42.4623 43.2311 41.7323 43.3911C38.1923 44.0511 34.0323 44.7311 29.9823 44.7311C29.1623 44.7311 28.3623 44.7011 27.6023 44.6411C26.4223 44.5511 25.2823 44.4011 24.2423 44.1811H24.1823L24.1223 44.1611C23.1723 44.0211 22.2423 43.7611 21.3523 43.4111C19.2923 40.5611 18.0023 37.1111 17.7723 33.3811C17.7423 32.9911 17.7323 32.6011 17.7323 32.2011C17.7323 30.6511 17.9123 29.1311 18.2723 27.6911C18.7923 26.6211 19.4023 25.6011 20.0923 24.6411C20.2623 24.4011 20.4423 24.1711 20.6323 23.9411C20.8223 23.7111 21.0123 23.4811 21.2023 23.2611C21.5923 22.8211 22.0023 22.4011 22.4323 21.9911C25.8623 18.7611 30.4923 16.7811 35.5723 16.7811C40.6523 16.7811 45.6723 18.9311 49.1423 22.4011C50.8823 24.1411 52.2823 26.2011 53.2523 28.5011C53.5523 29.2211 53.8123 29.9611 54.0323 30.7111C54.1223 31.0211 54.1923 31.3211 54.2723 31.6311C54.3423 31.9411 54.4023 32.2511 54.4623 32.5711C54.5423 33.0411 54.6123 33.5211 54.6623 34.0011C54.7223 34.6511 54.7623 35.3011 54.7623 35.9611" fill="#23376C"/>
<path d="M69.6223 30.6811L69.7023 30.7211C69.9423 30.3211 70.1823 29.9011 70.4023 29.4411C71.3223 27.6111 72.9523 24.3411 72.4423 20.5411C71.8023 15.8011 68.0623 12.6611 65.7723 11.0511C65.7623 11.0411 65.7423 11.0211 65.7323 11.0211L65.6623 11.1211C65.3723 10.8911 65.0923 10.6611 64.7923 10.4611C64.4923 10.2511 64.1923 10.0511 63.8723 9.86113C63.4123 9.58113 62.9423 9.31113 62.4523 9.07113C62.4023 9.05113 62.3623 9.03113 62.3123 9.01113C61.0223 8.40113 59.7923 7.99113 58.7123 7.71113C58.7023 7.71113 58.6923 7.71113 58.6823 7.71113L58.5923 7.69113C57.7423 7.48113 56.9923 7.34113 56.3723 7.25113C56.3623 7.25113 56.3523 7.25113 56.3423 7.25113C55.1323 7.09113 54.2323 6.97113 54.2023 6.97113C55.4123 7.19113 56.9123 7.56113 58.5523 8.18113C60.4023 8.90113 62.4223 9.94113 64.3923 11.5111C66.4323 13.1311 69.1923 15.3111 69.9623 18.9811C70.3923 21.0211 70.1223 22.7011 69.8923 23.9211C68.6923 30.3711 63.3023 35.5211 58.0423 38.9711C54.9623 40.9811 51.5623 42.5811 48.0123 43.7911C46.8323 44.1911 45.6323 44.5611 44.4223 44.8711C43.6623 45.0611 42.8923 45.2411 42.1223 45.4111C40.9723 45.6311 39.7923 45.8411 38.5823 46.0211C28.6723 47.7911 15.7223 46.7111 11.3623 35.8811C10.9023 34.7511 10.5923 33.5711 10.4523 32.3511C10.1723 29.9211 10.5623 27.3811 11.8423 24.9011C12.6323 23.4911 13.6823 22.2011 14.8823 21.0611C15.6623 20.2911 16.5023 19.5711 17.3823 18.8911C18.4123 18.1011 19.5023 17.3811 20.6323 16.6911L18.5223 17.1811V17.1511L18.5023 17.1211L19.1223 16.9911L19.5423 16.9011L20.6223 16.6811C21.7423 15.9911 22.9123 15.3511 24.0823 14.7111C24.0823 14.7111 24.0923 14.7111 24.1023 14.7111C24.7823 14.3511 25.4623 13.9811 26.1423 13.6211C25.7123 13.6211 25.2723 13.6411 24.8423 13.6611C22.3623 14.5911 19.6823 15.3711 16.9823 15.8711C16.5823 16.0711 16.1823 16.2911 15.7923 16.5111C14.7423 17.1211 13.7423 17.8111 12.7923 18.5811C10.9323 19.9611 8.39227 21.1911 7.11227 23.0511C3.37227 28.1911 3.45227 35.3211 4.94227 41.4511C5.24227 42.6711 5.63227 43.8811 6.11227 45.0411C10.6623 58.2211 25.7723 59.6611 37.6323 56.4711C38.6223 56.3611 39.5223 56.2511 40.3123 56.1511C41.1023 56.0511 41.7923 55.9711 42.3723 55.9011C42.5623 55.8111 42.7823 55.6911 43.0323 55.5711C43.1123 55.5211 43.1923 55.4811 43.2723 55.4411C49.0123 52.7611 54.2723 49.2211 59.1223 45.1711C61.3923 43.2711 63.6023 41.3011 65.7623 39.2711C65.8923 39.1411 66.0423 39.0111 66.1723 38.8811C66.2523 37.6111 66.9423 36.3811 68.2423 35.8911C68.5423 35.2911 68.8023 34.6811 69.0223 34.0511C69.2623 33.3411 69.6623 32.8111 70.1423 32.4311C69.8923 32.1811 69.6323 31.9311 69.3823 31.6811C68.7923 32.6911 68.1423 33.6511 67.4323 34.5811L67.1823 34.3911L66.9323 34.2011C67.8223 33.0511 68.6423 31.8311 69.3423 30.5611L69.5923 30.6911L69.6223 30.6811ZM72.1423 22.2511C72.1923 23.7511 71.9823 25.2511 71.5823 26.6911L71.3323 26.6211L71.0823 26.5511C71.4923 25.1611 71.7123 23.7111 71.6823 22.2711H71.9123L72.1423 22.2611V22.2511ZM68.7123 14.2411L68.8423 14.1411L68.9823 14.0311C69.9023 15.1911 70.6823 16.4811 71.2323 17.8711L71.0423 17.9411L70.8523 18.0111C70.3323 16.6611 69.6023 15.3911 68.7123 14.2311M14.3423 18.5511L14.3723 18.6211L14.4023 18.7011C13.0823 19.3411 11.8323 20.1111 10.6823 21.0211L10.6023 20.9211L10.5223 20.8211C11.7023 19.9311 12.9923 19.1811 14.3323 18.5611M7.36227 23.9411L7.50227 24.0411L7.64227 24.1411C6.77227 25.3111 6.09227 26.6111 5.63227 27.9811L5.44227 27.9111L5.24227 27.8411C5.73227 26.4311 6.46227 25.1011 7.37227 23.9311M4.87227 36.6811C4.55227 35.2211 4.39227 33.7311 4.43227 32.2411H4.67227L4.90227 32.2511C4.88227 33.7011 5.05227 35.1511 5.38227 36.5711L5.12227 36.6311L4.87227 36.6811ZM8.74227 44.6811C7.80227 43.5211 7.00227 42.2511 6.35227 40.9011L6.61227 40.7711L6.87227 40.6411C7.52227 41.9411 8.32227 43.1611 9.24227 44.2711L8.99227 44.4711L8.74227 44.6711V44.6811ZM15.7423 50.1811C14.4023 49.5211 13.1223 48.7311 11.9423 47.8211L12.1523 47.5511L12.3623 47.2911C13.5023 48.1811 14.7523 48.9311 16.0523 49.5711L15.9023 49.8811L15.7523 50.1811H15.7423ZM24.2823 52.7111C22.8123 52.5111 21.3523 52.2011 19.9123 51.7811L20.0123 51.4411L20.1123 51.1011C21.5123 51.5011 22.9423 51.7911 24.3823 51.9911L24.2823 52.7011V52.7111ZM28.7223 53.0611V52.6911L28.7323 52.3211C30.1923 52.3411 31.6423 52.2811 33.1023 52.1511L33.1323 52.5311L33.1623 52.9111C31.6823 53.0411 30.2023 53.1011 28.7123 53.0711M40.8223 51.5511C40.4623 51.6511 40.1023 51.7411 39.7423 51.8311C39.0223 52.0111 38.2923 52.1611 37.5623 52.3011L37.4823 51.9211L37.4123 51.5411C38.1323 51.4011 38.8423 51.2511 39.5523 51.0711C39.9023 50.9811 40.2623 50.8911 40.6123 50.8011C40.9623 50.7011 41.3323 50.6011 41.6823 50.5211L41.7823 50.8911L41.8823 51.2711C41.5223 51.3611 41.1823 51.4511 40.8223 51.5511ZM49.2623 48.8111C48.9223 48.9711 48.5723 49.0811 48.2223 49.2211C47.5323 49.4711 46.8423 49.7511 46.1323 49.9811L46.0123 49.6211L45.8923 49.2711C46.5823 49.0411 47.2623 48.7811 47.9523 48.5311C48.2923 48.4011 48.6423 48.2911 48.9723 48.1311L49.9723 47.6911L50.1323 48.0211L50.2823 48.3611L49.2623 48.8111ZM54.2123 46.2611L54.0223 45.9511L53.8323 45.6411C55.0923 44.8911 56.3123 44.0911 57.5123 43.2511L57.9223 43.8211C56.7223 44.6811 55.4823 45.4911 54.2123 46.2611ZM64.5923 37.9611C63.5723 39.0311 62.5023 40.0611 61.3923 41.0411L61.1623 40.7811L60.9323 40.5211C62.0323 39.5511 63.0923 38.5511 64.1023 37.4911L64.3423 37.7211L64.5923 37.9511V37.9611Z" fill="#23376C"/>
<path d="M11.1623 15.2011C11.7323 14.5611 12.6223 13.6011 13.7923 12.5411C18.2923 8.46113 22.8423 6.50113 25.4023 5.43113C26.5723 4.94113 28.2223 4.30113 30.2523 3.69113C29.5323 5.08113 28.9923 6.09113 28.5823 6.84113C28.3123 7.34113 28.0823 7.74113 27.9323 8.35113C27.7023 9.25113 27.8823 9.61113 27.6823 10.1311C27.3523 11.0211 26.3023 11.4011 25.5923 11.6511C23.4923 12.3811 20.9323 13.2411 17.9723 14.1611C18.2323 13.7811 18.5123 13.3911 18.8023 13.0011C19.3823 12.2311 19.9623 11.5311 20.5323 10.9011C19.8823 11.2311 19.0923 11.7011 18.2823 12.3811C17.3123 13.1911 16.6223 14.0211 16.1523 14.6911C15.7423 14.8011 15.3323 14.9011 14.9223 15.0111C15.5023 14.1511 16.2723 13.1311 17.3023 12.1011C18.3923 11.0111 19.4623 10.1911 20.3623 9.60113C18.9823 10.2311 17.3923 11.0811 15.7123 12.2311C14.1623 13.2911 12.8923 14.3811 11.8623 15.3611C11.6323 15.3111 11.4023 15.2511 11.1823 15.2011" fill="#23376C"/>
<path d="M61.9923 8.66114L61.9623 8.73114C61.5423 8.54114 61.1323 8.38114 60.7223 8.23114C61.1523 8.36114 61.5723 8.50114 61.9923 8.66114Z" fill="#23376C"/>
<path d="M71.7523 31.3211C71.4723 32.0011 71.1723 32.6711 70.8423 33.3411C67.0723 41.1011 60.4523 47.9611 53.4323 52.6811C49.2423 55.5011 44.3123 57.5311 39.1723 58.6811C38.1423 58.9111 37.1123 59.1111 36.0723 59.2711C25.4123 60.7211 12.4623 59.6411 5.26227 50.4011C4.56227 49.5311 3.92227 48.6211 3.35227 47.6711C-0.0677295 41.9611 -1.06773 34.8511 1.27227 28.4411C2.10227 25.9911 3.34227 23.6811 4.96227 21.6811C6.72227 19.5111 8.95227 17.7611 11.4523 16.3911C11.5523 16.3911 11.6523 16.3911 11.7523 16.3911C12.8223 16.1411 13.7023 15.9211 14.2723 15.7811C14.2723 15.7811 19.4123 14.4911 26.3323 12.0811C26.4923 12.0211 26.8623 11.8911 27.3223 11.6511C28.0023 11.3011 28.5123 10.9011 28.8323 10.6211C29.2123 10.6211 29.6123 10.6111 30.0323 10.5711C30.9623 10.5011 31.8023 10.3511 32.5323 10.1711C31.2023 11.1711 30.0423 11.8611 29.2323 12.2911C27.3323 13.3211 25.9423 13.7711 24.1023 14.6611C24.1023 14.6611 24.0923 14.6611 24.0823 14.6611C23.4723 14.9611 22.8023 15.3111 22.0523 15.7511C21.4423 16.1111 20.9423 16.4211 20.6323 16.6311C20.2723 16.6911 19.9123 16.7711 19.5523 16.8511L19.1323 16.9411L18.5123 17.0711V17.1011C17.1023 17.4811 15.7023 17.9811 14.3723 18.6111L14.3423 18.5411C13.0023 19.1611 11.7123 19.9111 10.5323 20.8011L10.6123 20.9011C9.44227 21.8011 8.38227 22.8511 7.50227 24.0211L7.36227 23.9211C6.46227 25.1011 5.72227 26.4211 5.23227 27.8311L5.43227 27.9011C4.97227 29.2311 4.70227 30.6711 4.66227 32.2311H4.42227C4.38227 33.7211 4.54227 35.2111 4.86227 36.6611L5.11227 36.6011C5.33227 37.6011 5.65227 38.5811 6.04227 39.5411C6.21227 39.9511 6.40227 40.3511 6.59227 40.7411L6.33227 40.8711C6.99227 42.2111 7.79227 43.4811 8.72227 44.6511L8.97227 44.4511C9.92227 45.6111 10.9823 46.6311 12.1323 47.5211L11.9223 47.7911C13.1023 48.7111 14.3823 49.5011 15.7223 50.1511L15.8723 49.8411C17.1823 50.4811 18.5623 51.0011 19.9923 51.4111L19.8923 51.7511C21.3223 52.1711 22.7823 52.4711 24.2523 52.6811L24.3023 52.3211C25.7523 52.5311 27.2223 52.6311 28.7023 52.6611V53.0311C30.1823 53.0611 31.6723 53.0111 33.1423 52.8711L33.1123 52.4911C34.5923 52.3611 36.0523 52.1511 37.4823 51.8711L37.5523 52.2511C38.2823 52.1111 39.0023 51.9611 39.7323 51.7811C40.0923 51.6911 40.4523 51.6011 40.8123 51.5011C41.1723 51.4011 41.5123 51.3011 41.8723 51.2211L41.7723 50.8411C42.6023 50.6211 43.4523 50.3811 44.3223 50.1211C44.8823 49.9411 45.4423 49.7711 46.0023 49.5711L46.1223 49.9411C46.8223 49.7011 47.5123 49.4311 48.2123 49.1811C48.5623 49.0411 48.9123 48.9311 49.2523 48.7711L50.2723 48.3111L50.1223 47.9711C50.6523 47.7211 51.1923 47.4611 51.7423 47.1911C52.2123 46.9511 53.0323 46.5011 54.0223 45.9011L54.2123 46.2111C55.4823 45.4511 56.7223 44.6311 57.9223 43.7711L57.7123 43.4811C58.7823 42.7211 59.8623 41.8811 60.8223 41.0311C60.9223 40.9411 61.0423 40.8411 61.1623 40.7311L61.3923 40.9911C62.4923 40.0111 63.5723 38.9811 64.5923 37.9111L64.3423 37.6811C65.2823 36.7011 66.2723 35.5811 67.2123 34.3311L67.4623 34.5211C68.1623 33.5911 68.8223 32.6311 69.4123 31.6211C69.5723 31.3411 69.7323 31.0611 69.8823 30.7811L69.7123 30.6811L69.6323 30.6411C70.3323 29.3511 70.9223 27.9911 71.3323 26.5811L71.5823 26.6511C71.9823 25.2111 72.2023 23.7111 72.1423 22.2111H71.9123C71.8923 21.3911 71.7923 20.5611 71.6023 19.7211C71.4523 19.0911 71.2623 18.4811 71.0423 17.9011L71.2323 17.8311C70.6823 16.4411 69.9023 15.1511 68.9823 13.9911L68.8423 14.1011C67.6923 12.6111 66.4923 11.5711 65.7823 11.0111C65.7623 11.0011 65.7523 10.9811 65.7423 10.9811L65.8223 10.8811C65.5223 10.6611 65.2323 10.4311 64.9223 10.2311C64.6223 10.0211 64.3023 9.82113 63.9823 9.63113C63.3423 9.25113 62.6823 8.92113 62.0023 8.63113C63.0323 8.99113 64.0223 9.43113 64.9823 9.94113C67.8723 11.4811 70.4223 13.7811 71.8923 16.7111C74.1523 21.1811 73.6623 26.6511 71.7523 31.2911" fill="#23376C"/>
<path d="M22.2723 4.86114L16.6923 6.29114L13.9423 8.72114L14.5723 11.1811C14.6123 11.1211 14.6523 11.0511 14.6823 10.9811C15.0423 10.2411 14.9823 9.47114 14.8723 8.93114L16.9723 7.44113L17.3723 9.01114C17.5023 8.93114 17.7123 8.77114 17.9023 8.51114C18.0923 8.25114 18.1723 8.00114 18.2123 7.85114C18.1423 7.55114 18.0723 7.26113 18.0023 6.96113C19.3923 6.60113 20.7923 6.25114 22.1823 5.89114L22.3123 6.39114C22.3623 6.34114 22.4223 6.25114 22.4723 6.12114C22.5323 5.96114 22.5223 5.82114 22.5123 5.74114L22.2823 4.85114L22.2723 4.86114Z" fill="#23376C"/>
<path d="M16.5923 5.90115L21.8223 4.56115C21.1523 4.26115 20.1923 3.93115 19.0223 3.85115C16.1823 3.67115 14.0823 5.08115 13.3823 5.60115C13.7223 5.50115 14.2923 5.36115 15.0123 5.43115C15.7323 5.50115 16.2723 5.74115 16.5823 5.90115" fill="#23376C"/>
<path d="M13.1023 6.03114C13.2823 5.95114 13.4823 5.87114 13.7023 5.82114C14.8023 5.57114 15.7523 6.04114 16.1323 6.25114L13.7823 8.35114C13.5523 7.58114 13.3323 6.80114 13.1023 6.03114Z" fill="#23376C"/>
<path d="M67.0323 27.4611C65.4523 26.1611 63.6423 24.8111 61.5923 23.4811C58.9923 21.7911 56.5123 20.4511 54.2623 19.3911C54.9023 20.1611 55.6323 21.1611 56.2723 22.4111C56.7023 23.2311 57.0123 24.0111 57.2523 24.7011C58.7523 25.4811 60.3523 26.4011 62.0123 27.4911C63.3223 28.3511 64.5223 29.2211 65.6123 30.0611C65.8623 29.6911 66.1223 29.2811 66.3723 28.8111C66.6323 28.3311 66.8423 27.8711 67.0123 27.4611" fill="#23376C"/>
<path d="M60.7223 8.24113C60.0523 8.04113 59.3823 7.86113 58.7023 7.70113C58.6923 7.70113 58.6823 7.70113 58.6723 7.70113L58.5823 7.68113C57.8523 7.51113 57.1023 7.36113 56.3623 7.24113C56.3523 7.24113 56.3423 7.24113 56.3323 7.24113C56.1023 7.20113 55.8623 7.16113 55.6323 7.13113C55.6923 7.13113 55.7623 7.13113 55.8223 7.14113C56.1423 7.17113 56.8323 7.24113 57.7623 7.42113C58.0623 7.48113 58.3923 7.55113 58.7323 7.64113C59.3423 7.80113 60.0123 7.99113 60.7223 8.25113" fill="#23376C"/>
<path d="M55.6223 7.10114C55.9823 7.11114 56.3423 7.15114 56.7023 7.20114C57.0623 7.25114 57.4123 7.30114 57.7723 7.37114V7.43114C57.4123 7.35114 57.0523 7.29113 56.7023 7.23113C56.3423 7.18113 55.9823 7.13114 55.6323 7.11114" fill="#23376C"/>
<path d="M55.5823 9.08113C55.6423 9.35113 55.7023 9.66113 55.7923 9.95113C55.9223 10.4011 56.3623 10.4911 56.6623 10.1311C56.8923 9.85113 57.1123 9.55113 57.3223 9.25113C57.5523 8.92113 57.7723 8.63113 58.2523 8.60113C58.7323 8.57113 58.6423 8.22113 58.4023 7.93113C59.2723 7.11113 60.1123 6.33113 60.9623 5.53113C60.5923 5.10113 60.2023 5.22113 59.8323 5.39113C59.0723 5.74113 58.3223 6.10113 57.4723 6.50113C57.5223 5.82113 57.5623 5.23113 57.6023 4.63113C57.0423 4.31113 56.6023 4.53113 56.2223 4.92113C55.7623 5.39113 55.3023 5.87113 54.8823 6.37113C54.6223 6.68113 54.3623 6.75113 53.9723 6.66113C53.1923 6.48113 52.3923 6.35113 51.4423 6.16113C52.1023 5.56113 52.6323 4.94113 53.2823 4.51113C55.3123 3.17113 57.3923 1.91113 59.4523 0.611131C58.9723 -0.018869 58.6223 -0.128869 57.9623 0.131131C53.8423 1.73113 49.7223 3.34113 45.5923 4.93113C45.3423 5.03113 45.0223 5.05113 44.7523 5.00113C43.1923 4.68113 41.6523 4.33113 40.1023 3.99113C39.4423 3.85113 38.8023 3.84113 38.1723 4.14113C37.8323 4.31113 37.4323 4.36113 37.0923 4.53113C36.8223 4.67113 36.4523 4.91113 36.4323 5.13113C36.3923 5.40113 36.6023 5.85113 36.8423 5.99113C37.6123 6.42113 38.4223 6.84113 39.2723 7.09113C40.6023 7.47113 41.9823 7.72113 43.3423 7.98113C43.7223 8.05113 43.9423 8.18113 44.1123 8.55113C44.7523 10.0011 45.4323 11.4511 46.0923 12.8911C46.5123 13.8111 46.5623 13.8411 47.7323 13.8611V13.1311C47.7323 12.6711 47.7823 12.2111 47.7223 11.7611C47.5523 10.6711 47.9123 9.87113 48.8223 9.26113C49.1323 9.05113 49.3823 8.93113 49.7623 8.96113C50.7323 9.03113 51.6923 9.06113 52.6623 9.08113C53.6123 9.10113 54.5623 9.08113 55.5823 9.08113Z" fill="#23376C"/>
</svg>
